<?xml version="1.0" encoding="utf-8"?>
<!-- Generator: Adobe Illustrator 15.1.0, SVG Export Plug-In . SVG Version: 6.00 Build 0)  -->
<!DOCTYPE svg PUBLIC "-//W3C//DTD SVG 1.1//EN" "http://www.w3.org/Graphics/SVG/1.1/DTD/svg11.dtd">
<svg version="1.1" id="Camada_1" xmlns="http://www.w3.org/2000/svg" xmlns:xlink="http://www.w3.org/1999/xlink" x="0px" y="0px"
	 width="356.113px" height="291.25px" viewBox="0 0 356.113 291.25" enable-background="new 0 0 356.113 291.25"
	 xml:space="preserve">
<path fill="#BA007C" stroke="#000000" stroke-miterlimit="10" d="M46.113,138.75c0,0-46.25-25,0-52.5c1.25,1.25,67.5-15,67.5-15
	S135.444,22.5,173.904,20c-0.291,1.25,87.209-10,87.209-10s77.5,26.25,18.75,64.375c2.5,1.875-146.25,108.125-146.25,108.125
	L46.113,138.75z"/>
<path fill="#FEEE00" stroke="#000000" stroke-miterlimit="10" d="M28.613,191.25c0,0-30-47.5,17.5-52.5
	c1.25,1.25,81.25,31.25,110-21.25c1.25,0,17.5-72.5,78.75-76.25c1.25-1.25,60,0,60,0s28.75,22.5,16.25,35s-176.25,150-176.25,150
	L28.613,191.25z"/>
<path fill="#001D7E" stroke="#000000" stroke-miterlimit="10" d="M28.613,191.25c0,0,176.25,60,176.25-66.25
	c0,1.25,37.5-113.75,136.25-52.5c0,1.25,22.5,41.27-15,57.51c0,1.24-57.5-20.01-72.5,22.49c1.25,0-37.5,153.75-225,102.5
	C29.863,255-36.387,216.25,28.613,191.25z"/>
<path fill="#001D7E" stroke="#000000" stroke-miterlimit="10" d="M1123.613,125"/>
<path display="none" fill="#BA007C" stroke="#000000" stroke-miterlimit="10" d="M46.113,138.75c0,0-46.25-25,0-52.5
	c1.25,1.25,67.5-15,67.5-15S135.444,22.5,173.904,20c-0.291,1.25,87.209-10,87.209-10s77.5,26.25,18.75,64.375
	c2.5,1.875-146.25,108.125-146.25,108.125L46.113,138.75z"/>
<path fill="#FFFFFF" stroke="#000000" stroke-width="5" stroke-miterlimit="10" d="M99.863,22.5c0,0,45,31.25,81.25-12.5
	c0,1.25,0,138.374,0,138.374s85-3.374,85,60.376c0,2.5,15,73.75-83.125,75c-0.625,1.25-65.625,0-65.625,0l22.5-57.5l-31.25-43.75
	L99.863,22.5z"/>
<path fill="#E6B54A" stroke="#000000" stroke-width="5" stroke-miterlimit="10" d="M163.712,201.988l3.053,50.87l14.98-26.368
	l9.368-16.49c0,0,7.5-15,13.75-2.5c0,1.25,17.5,45.358,17.5,45.358l-38.964-19.108"/>
</svg>
